<svg xmlns="http://www.w3.org/2000/svg" viewBox="0 0 90.1 89.14"><defs><style>.cls-1{fill:#fff;}</style></defs><g id="Layer_2" data-name="Layer 2"><g id="Layer_1-2" data-name="Layer 1"><g id="Layer_2-2" data-name="Layer 2"><g id="Layer_1-2-2" data-name="Layer 1-2"><path d="M0,32.9A32,32,0,0,1,8.28,10.58c4.17-4.6,9.09-8.3,15.43-9.4,6-1,11.19-.89,15.41.71a2.66,2.66,0,0,0,1.58,0A43,43,0,0,1,56.12.09c1.53.13,3,.6,4.57.81,3.15.43,6.32.71,9.46,1.19A21.81,21.81,0,0,1,81.09,6.84a19.36,19.36,0,0,1,5.37,6.68A50.25,50.25,0,0,1,89.4,21c1.2,4.25.69,8.56-.37,12.77-.52,2-1.27,4-1.9,6a7.72,7.72,0,0,0-.3,1.17,105.41,105.41,0,0,1-2.82,16c-1.28,4.88-2.33,9.84-3.87,14.64a25.33,25.33,0,0,1-10.3,14,22.77,22.77,0,0,1-15.53,3.39A53,53,0,0,1,26,76.43c-1.56-1.3-2.87-2.9-4.34-4.32a14.74,14.74,0,0,0-2.26-1.91c-5.09-3.32-9.87-8.81-13.83-15.64C2,48.37-.2,41.68,0,34.39ZM45.64,14.33a38.77,38.77,0,0,0-14.27,5.34A31.27,31.27,0,0,0,18.1,34.39c-3.11,7.34-3.45,14.76.28,22C22.31,64,28.69,68.21,37.23,69.07A33.93,33.93,0,0,0,48,68.56a40.39,40.39,0,0,0,15.18-7.14c4.34-3.19,8.21-6.79,10.7-11.67a16.5,16.5,0,0,0,2-9.31c-.61-6-3.84-10.61-8.1-14.52-3.52-3.22-7.29-6.15-10.93-9.23a9.66,9.66,0,0,0-6.17-2.64C50.38,14,47,14.13,45.64,14.33Zm-9-10.83c.15-.09.14-.22,0-.27-.56-.24,1.11.53.55.31a19,19,0,0,0-8.6-1.63A26.14,26.14,0,0,0,12.44,9.57,31.11,31.11,0,0,0,4.69,20.7a38.44,38.44,0,0,0,.37,29.16,41.71,41.71,0,0,0,8.49,13.57q2.17,2.29,4.56,4.37a.48.48,0,0,0,0-.49c-1-2.08-2.06-4.16-3.11-6.23a2.07,2.07,0,0,0-.44-.58A31.82,31.82,0,0,1,6.4,47.71,23.68,23.68,0,0,1,5.36,34a32.39,32.39,0,0,1,7.78-14.09A61.82,61.82,0,0,1,34.24,4.6ZM80.46,48.84c0,.16.1.17.16,0s.23-.46.33-.69c.86-2.09,1.73-4.18,2.57-6.28a10.38,10.38,0,0,0,.87-2.53,43.16,43.16,0,0,0-.13-13.23,31.69,31.69,0,0,0-3.75-10.59c-2.76-4.68-7-7.7-11.65-10.18A14,14,0,0,0,59,4.06c-3.26.73-6.47,1.69-9.69,2.55a3.91,3.91,0,0,0-.68.4c.22.18.32.28.44.36C51,8.8,52.92,10.2,54.8,11.67a14.49,14.49,0,0,0,4,2.25,23.25,23.25,0,0,1,5.46,2.73,34,34,0,0,1,9.87,10.7,47.62,47.62,0,0,1,5.79,16.56C80.14,45.54,80.27,47.19,80.46,48.84Zm1.38,5c0-.42-.16-.35-.28-.07-.66,1.72-1.38,3.43-2,5.17-1.27,3.72-2.42,7.47-4.82,10.71A22.55,22.55,0,0,1,56,79.18,42.67,42.67,0,0,0,51.48,79,47.16,47.16,0,0,1,28,75.22c-.39-.16-.72-.37-1.14-.55-.25-.11-.42,0-.17.28,1.73,1.35,3.39,2.78,5.2,4a60.94,60.94,0,0,0,10.54,5.63,35.9,35.9,0,0,0,14.44,3A19.92,19.92,0,0,0,71.08,82a28.35,28.35,0,0,0,7.4-13,112.21,112.21,0,0,0,3.19-13.29,17.41,17.41,0,0,0,.17-1.9Zm-44.46,17a2.69,2.69,0,0,0,.32.27,76.87,76.87,0,0,0,13.42,5.17,11.37,11.37,0,0,0,8.13-.67c.75-.37,1.54-.65,2.29-1A30.36,30.36,0,0,0,73.28,64.38,70.7,70.7,0,0,0,79.19,53a2.87,2.87,0,0,0,.2-1,35.37,35.37,0,0,0-1.2-11.31,1.89,1.89,0,0,0-.38-.81c-.3-.11-.27.36-.27.51.14,5.68-2.27,10.41-5.73,14.65A46.8,46.8,0,0,1,56.78,67a31.26,31.26,0,0,1-14.51,3.78Zm34-66.19C80.85,10.85,85,20.28,87.15,31c1.42-6.22,1.65-12.35-2.2-17.82-3.29-4.71-8-7.36-13.61-8.56ZM46.56,77.88C36.9,73.8,27.29,69.68,18.43,64a59.09,59.09,0,0,0,3.32,5.45,6.61,6.61,0,0,0,1.83,2,45.23,45.23,0,0,0,11.61,5.1A41.94,41.94,0,0,0,46.56,77.88ZM25.86,21.13c-.19.22-.07.41.19.21A53.27,53.27,0,0,1,37.6,14.7a34.33,34.33,0,0,1,13.11-2.6,38,38,0,0,0-3.19-2.45C45.28,8.06,45.26,8,42.81,9.27a79.84,79.84,0,0,0-15,9.94C27.13,19.79,26.52,20.49,25.86,21.13ZM55.92,2.35A33.56,33.56,0,0,0,43,3.62c1,.58,1.75,1.08,2.55,1.45a2,2,0,0,0,1.35.12c1.68-.54,3.32-1.21,5-1.75C53.25,3,54.59,2.7,55.92,2.35ZM75.54,65.54a32.18,32.18,0,0,1-12.3,10.25C67.29,75.34,73.82,69.91,75.54,65.54Z"/><path class="cls-1" d="M9.86,52.18C6.7,47.75,6.18,44.09,6.4,39.51a25.71,25.71,0,0,1,6.06-15.25A64.94,64.94,0,0,1,30.32,9a79.83,79.83,0,0,1,8.79-4,2,2,0,0,1,1.45.13c.92.43,1.77,1,2.81,1.6-1.32.75-2.5,1.43-3.7,2.1A62.64,62.64,0,0,0,21.85,23.13,39.93,39.93,0,0,0,14,37.46a35,35,0,0,0-.88,16.25c.12.67.24,1.34.35,2,0,0,0,.14-.05.17C13.17,56,11,53.66,9.86,52.18Z"/><path class="cls-1" d="M14.29,43.33a49.58,49.58,0,0,0,1.58,9.9,31.62,31.62,0,0,0,3.86,8.16c-.26-.2-.69-.4-1.18-.79a7.73,7.73,0,0,1-3.16-4.43,46.76,46.76,0,0,1-1.27-11.49C14.16,44.23,14.21,43.78,14.29,43.33Z"/></g></g></g></g></svg>