<svg xmlns="http://www.w3.org/2000/svg" viewBox="0 0 321.65 89.12"><defs><style>.cls-1{stroke:#000;stroke-miterlimit:10;}.cls-2{fill:#fff;}</style></defs><g id="Layer_2" data-name="Layer 2"><g id="Layer_1-2" data-name="Layer 1"><path class="cls-1" d="M113.06,16.87v.86h-5.54V23h4v.86h-4v5.68h5.54v.86h-6.42V16.87Z"/><path class="cls-1" d="M118,30.13l2.88-4.88-2.58-4.64.76-.42,2.58,4.64h.78L125,20.19l.76.42-2.6,4.64,2.9,4.88-.76.46-2.88-4.9h-.8l-2.86,4.9Z"/><path class="cls-1" d="M138.13,21.27h-4.2v5.78a2.3,2.3,0,0,0,2.44,2.44h1.76v.86h-1.78a3.16,3.16,0,0,1-3.3-3.3V21.27h-3.49v-.88h3.49V16.87h.88v3.52h4.2Z"/><path class="cls-1" d="M147.51,29.47h3.84v.88h-8.56v-.88h3.84V21.25h-3.84v-.86h4.72Zm-.88-11.94a1.3,1.3,0,1,1,1.3-1.3A1.3,1.3,0,0,1,146.63,17.53Z"/><path class="cls-1" d="M153.48,20.25l1.7,1.36a2.54,2.54,0,0,1,2.3-1.4,2.16,2.16,0,0,1,1.92,1,2.39,2.39,0,0,1,1.94-1c1.5,0,2.28.9,2.28,2.62v7.52h-.88V22.83c0-1.4-.52-1.76-1.4-1.76a1.58,1.58,0,0,0-1.58,1.38v7.9h-.88V22.57a1.34,1.34,0,0,0-1.4-1.5,1.66,1.66,0,0,0-1.68,1.28v8h-.88V22.49l-2-1.56Z"/><path class="cls-1" d="M173.94,28.73a6.73,6.73,0,0,1-4.08,1.82,2.75,2.75,0,1,1-.16-5.46,16.28,16.28,0,0,1,4,.56v-2a2.69,2.69,0,0,0-2.88-2.6,9.75,9.75,0,0,0-2.82.36l-.3-.82a11.36,11.36,0,0,1,3.12-.4,3.54,3.54,0,0,1,3.74,3.46v4.44l2.71,1.84-.47.72Zm-.24-1V26.53a14.76,14.76,0,0,0-4-.58,1.93,1.93,0,0,0-2.1,1.88c0,.88.66,1.84,2.26,1.84A6.4,6.4,0,0,0,173.7,27.77Z"/><path class="cls-1" d="M187.51,22.21l-.78.4a3,3,0,0,0-2.86-1.74c-2,0-3.44,1.74-3.44,4.5,0,2.52,1.3,4.52,3.5,4.52a3.15,3.15,0,0,0,3-2.38l.84.22a4,4,0,0,1-3.86,3c-2.62,0-4.36-2.28-4.36-5.38s1.78-5.38,4.3-5.38A3.88,3.88,0,0,1,187.51,22.21Z"/><path class="cls-1" d="M196.69,29.47h3.84v.88H192v-.88h3.84V21.25H192v-.86h4.72Zm-.88-11.94a1.3,1.3,0,1,1,1.3-1.3A1.3,1.3,0,0,1,195.81,17.53Z"/><path class="cls-1" d="M204.9,24.85a4.52,4.52,0,0,0,0,.52c0,2.72,1.32,4.52,3.36,4.52a3.14,3.14,0,0,0,3-2.24l.84.26a4,4,0,0,1-3.84,2.84c-2.52,0-4.2-2.16-4.2-5.38,0-2.92,1.56-5.38,4.22-5.38,2.24,0,4,2,3.9,4.86ZM205,24h6.22a3.18,3.18,0,0,0-3-3.12C206.64,20.87,205.4,22.07,205,24Z"/><path class="cls-1" d="M223.16,20.57l-.34.76a6.56,6.56,0,0,0-2.62-.46c-1.2,0-2.2.64-2.2,1.68,0,2.52,5.5,2.3,5.5,5.54,0,1.58-1.22,2.66-3.16,2.66a7.08,7.08,0,0,1-3.72-1l.48-.72a6.31,6.31,0,0,0,3.24.86c1.46,0,2.3-.68,2.3-1.7,0-2.6-5.56-2.34-5.56-5.64,0-1.36,1.2-2.56,3.12-2.56A7,7,0,0,1,223.16,20.57Z"/><path d="M112.81,41.2l-.77.28a2.55,2.55,0,0,0-2.44-1.94c-1.92,0-3.23,2.22-3.23,5.84,0,3.47,1.36,5.86,3.14,5.86,1.6,0,2.55-1.6,2.89-3l.8.19c-.35,1.58-1.57,3.64-3.69,3.64-2.41,0-3.94-2.92-3.94-6.67,0-4.18,1.66-6.66,4-6.66A3.4,3.4,0,0,1,112.81,41.2Z"/><path d="M124.81,43.18h-2.36a3.13,3.13,0,0,0-2.39,1.12v6.55h4.75v.82h-8v-.82h2.44V44.37l-2.63-1.45.39-.71,2.56,1.42a4,4,0,0,1,2.89-1.25h2.36Z"/><path d="M133.11,50.85h3.58v.82h-8v-.82h3.59V43.18H128.7v-.8h4.41Zm-.82-11.14a1.22,1.22,0,1,1,1.21-1.22A1.22,1.22,0,0,1,132.29,39.71Z"/><path d="M147.31,43.2h-3.92v5.39a2.15,2.15,0,0,0,2.28,2.28h1.64v.8h-1.66a2.94,2.94,0,0,1-3.08-3.08V43.2H139.3v-.82h3.27V39.09h.82v3.29h3.92Z"/><path d="M156.06,50.85h3.58v.82h-8v-.82h3.59V43.18h-3.59v-.8h4.41Zm-.82-11.14a1.22,1.22,0,1,1,0-2.43,1.22,1.22,0,0,1,0,2.43Z"/><path d="M170.45,44.07l-.73.38a2.79,2.79,0,0,0-2.67-1.63c-1.85,0-3.21,1.63-3.21,4.2,0,2.36,1.21,4.22,3.26,4.22A2.93,2.93,0,0,0,169.92,49l.79.21a3.78,3.78,0,0,1-3.61,2.82c-2.44,0-4.07-2.13-4.07-5s1.67-5,4-5A3.65,3.65,0,0,1,170.45,44.07Z"/><path d="M180.73,50.16a6.32,6.32,0,0,1-3.81,1.7A2.61,2.61,0,0,1,174,49.32a2.58,2.58,0,0,1,2.76-2.56,14.82,14.82,0,0,1,3.73.53V45.42A2.52,2.52,0,0,0,177.81,43a9.18,9.18,0,0,0-2.63.34l-.28-.77a10.9,10.9,0,0,1,2.91-.37,3.31,3.31,0,0,1,3.5,3.23v4.14l2.53,1.72-.44.67Zm-.23-.9V48.11a13.62,13.62,0,0,0-3.73-.54,1.8,1.8,0,0,0-2,1.75c0,.82.61,1.72,2.11,1.72A6,6,0,0,0,180.5,49.26Z"/><path d="M185.67,50.87h3.58V37.67h.82v13.2h3.59v.8h-8Z"/><path d="M211.48,39.09v.8h-3.77V51.67h-.81V39.89h-3.77v-.8Z"/><path d="M215.32,51.67v-14h.8v5.55a4.35,4.35,0,0,1,2.89-1,2.84,2.84,0,0,1,3.07,3v6.48h-.83V45.19A2,2,0,0,0,219,43a3.39,3.39,0,0,0-2.89,1.29v7.37Z"/><path d="M227.28,46.54a3.93,3.93,0,0,0,0,.48c0,2.54,1.23,4.22,3.13,4.22a2.94,2.94,0,0,0,2.79-2.09l.78.25a3.76,3.76,0,0,1-3.58,2.65c-2.36,0-3.92-2-3.92-5,0-2.72,1.45-5,3.93-5,2.1,0,3.76,1.87,3.65,4.54Zm.09-.8h5.81a3,3,0,0,0-2.79-2.92C228.9,42.82,227.74,43.94,227.37,45.74Z"/><path d="M241.74,52.05c-2.17,0-3.94-2.28-3.94-5s1.77-5,3.94-5,3.94,2.26,3.94,5S243.92,52.05,241.74,52.05Zm0-9.25c-1.72,0-3.12,1.91-3.12,4.22s1.4,4.22,3.12,4.22,3.12-1.92,3.12-4.22S243.46,42.8,241.74,42.8Z"/><path d="M257.21,43.18h-2.35a3.12,3.12,0,0,0-2.39,1.12v6.55h4.74v.82h-8v-.82h2.45V44.37L249,42.92l.4-.71L252,43.63a4,4,0,0,1,2.9-1.25h2.35Z"/><path d="M268.61,42.51,263.7,56.06l-.77-.28,1.48-4.11H264l-3.53-9.16.77-.28,3.39,8.85,3.21-8.85Z"/><path d="M286.31,51.67h-7.43v-.82h2.69V40.77a3,3,0,0,1,3.1-3.1h1.64v.82h-1.64a2.15,2.15,0,0,0-2.28,2.28v1.61h3.92v.8h-3.92v7.67h3.92Z"/><path d="M298.31,43.18H296a3.12,3.12,0,0,0-2.39,1.12v6.55h4.74v.82h-8v-.82h2.45V44.37l-2.64-1.45.4-.71,2.55,1.42a4,4,0,0,1,2.9-1.25h2.35Z"/><path d="M305.79,52.05c-2.17,0-3.94-2.28-3.94-5s1.77-5,3.94-5,3.94,2.26,3.94,5S308,52.05,305.79,52.05Zm0-9.25c-1.72,0-3.12,1.91-3.12,4.22s1.4,4.22,3.12,4.22,3.12-1.92,3.12-4.22S307.51,42.8,305.79,42.8Z"/><path d="M312.19,42.24l1.58,1.27a2.39,2.39,0,0,1,2.15-1.3,2,2,0,0,1,1.79.95,2.23,2.23,0,0,1,1.81-.95c1.4,0,2.13.84,2.13,2.44v7h-.82v-7c0-1.3-.48-1.64-1.31-1.64a1.47,1.47,0,0,0-1.47,1.29v7.37h-.82V44.41a1.25,1.25,0,0,0-1.31-1.4,1.57,1.57,0,0,0-1.57,1.2v7.46h-.82V44.34l-1.85-1.46Z"/><path d="M112.88,64.52H109v5.4a2.14,2.14,0,0,0,2.28,2.27h1.64V73h-1.66a3,3,0,0,1-3.08-3.08v-5.4h-3.27V63.7h3.27V60.41H109V63.7h3.92Z"/><path d="M117.34,73V59h.8v5.54a4.37,4.37,0,0,1,2.9-1,2.84,2.84,0,0,1,3.06,3V73h-.82V66.52A2,2,0,0,0,121,64.33a3.39,3.39,0,0,0-2.9,1.29V73Z"/><path d="M129.3,67.86a4,4,0,0,0,0,.49c0,2.54,1.23,4.22,3.14,4.22a2.94,2.94,0,0,0,2.78-2.09l.78.24a3.76,3.76,0,0,1-3.58,2.65c-2.35,0-3.92-2-3.92-5,0-2.73,1.45-5,3.94-5,2.09,0,3.75,1.86,3.64,4.53Zm.09-.8h5.81a3,3,0,0,0-2.78-2.91C130.92,64.15,129.77,65.27,129.39,67.06Z"/><path d="M153.87,66.31c.32,5.47-1.57,7.06-3.51,7.06-2.42,0-4-2.84-4-6.66S148,60,150.36,60a3.53,3.53,0,0,1,3.27,2.5l-.77.25a2.69,2.69,0,0,0-2.5-1.95c-2,0-3.15,2.75-3.15,5.87,0,3.41,1.29,5.86,3.15,5.86,2.24,0,2.82-2.73,2.73-5.45H149.9v-.81Z"/><path d="M157.92,72.19h3.58V59h.82V72.19h3.59V73h-8Z"/><path d="M173.39,73.37c-2.17,0-3.94-2.28-3.94-5s1.77-5,3.94-5,3.94,2.26,3.94,5S175.57,73.37,173.39,73.37Zm0-9.24c-1.72,0-3.12,1.9-3.12,4.22s1.4,4.22,3.12,4.22,3.12-1.93,3.12-4.22S175.11,64.13,173.39,64.13Z"/><path d="M182.32,63.92a9.34,9.34,0,0,1,2.67-.41c2.56,0,3.64,1.18,3.64,4.54,0,3.57-.82,5.12-4,5.12a9.89,9.89,0,0,1-3.1-.43V59h.82Zm0,.84v7.38a9.81,9.81,0,0,0,2.28.22c2.52,0,3.21-.88,3.21-4.31,0-3.14-.91-3.73-2.82-3.73A9.26,9.26,0,0,0,182.32,64.76Z"/><path d="M198.88,71.48a6.26,6.26,0,0,1-3.81,1.7,2.56,2.56,0,1,1-.15-5.09,15.27,15.27,0,0,1,3.73.52V66.74A2.5,2.5,0,0,0,196,64.32a9.19,9.19,0,0,0-2.64.33l-.28-.76a10.46,10.46,0,0,1,2.92-.38,3.31,3.31,0,0,1,3.49,3.23v4.15L202,72.61l-.45.67Zm-.23-.89V69.43a14,14,0,0,0-3.73-.54,1.81,1.81,0,0,0-2,1.75c0,.83.62,1.72,2.11,1.72A5.94,5.94,0,0,0,198.65,70.59Z"/><path d="M203.82,72.19h3.58V59h.82V72.19h3.59V73h-8Z"/><path d="M228.47,61.14l-.58.56a3.59,3.59,0,0,0-2.39-.84c-1.17,0-2.42.58-2.42,2,0,3.06,5.54,3.75,5.54,7.65,0,1.61-1.38,2.86-3.36,2.86a4.29,4.29,0,0,1-3.6-1.79l.71-.41a3.43,3.43,0,0,0,2.89,1.38c1.68,0,2.56-1,2.56-2,0-3.39-5.55-4-5.55-7.65,0-1.62,1.27-2.82,3.23-2.82A4.39,4.39,0,0,1,228.47,61.14Z"/><path d="M236.94,73.37c-2.16,0-3.94-2.28-3.94-5s1.78-5,3.94-5,3.94,2.26,3.94,5S239.12,73.37,236.94,73.37Zm0-9.24c-1.72,0-3.12,1.9-3.12,4.22s1.4,4.22,3.12,4.22,3.12-1.93,3.12-4.22S238.66,64.13,236.94,64.13Z"/><path d="M244.85,63.7h.8v5.41c0,2.13,1.1,3.46,2.77,3.46,1.43,0,2.74-1.09,2.74-3.46V63.7h.8v5.41c0,2.77-1.6,4.26-3.54,4.26s-3.57-1.57-3.57-4.26Z"/><path d="M263.44,64.52h-3.92v5.4a2.14,2.14,0,0,0,2.28,2.27h1.64V73h-1.66a3,3,0,0,1-3.09-3.08v-5.4h-3.26V63.7h3.26V60.41h.83V63.7h3.92Z"/><path d="M267.89,73V59h.81v5.54a4.33,4.33,0,0,1,2.89-1,2.84,2.84,0,0,1,3.06,3V73h-.82V66.52a2,2,0,0,0-2.24-2.19,3.37,3.37,0,0,0-2.89,1.29V73Z"/><path d="M0,32.92A32,32,0,0,1,8.27,10.6C12.44,6,17.36,2.3,23.7,1.2c6-1,11.19-.89,15.41.71a2.66,2.66,0,0,0,1.58,0A43.27,43.27,0,0,1,56.11.11c1.53.13,3,.6,4.57.81,3.15.43,6.32.71,9.46,1.19A21.92,21.92,0,0,1,81.08,6.86a19.41,19.41,0,0,1,5.37,6.68A51.6,51.6,0,0,1,89.39,21c1.2,4.25.69,8.56-.37,12.77-.52,2-1.27,4-1.9,6a6.93,6.93,0,0,0-.3,1.17A107.06,107.06,0,0,1,84,56.9c-1.28,4.88-2.33,9.84-3.87,14.64a25.38,25.38,0,0,1-10.3,14A22.76,22.76,0,0,1,54.3,88.93,53,53,0,0,1,26,76.45c-1.56-1.3-2.87-2.9-4.34-4.32a15.76,15.76,0,0,0-2.26-1.91C14.31,66.9,9.53,61.41,5.57,54.58,2,48.39-.21,41.7,0,34.41,0,33.91,0,33.41,0,32.92ZM45.63,14.35a38.71,38.71,0,0,0-14.27,5.34A31.26,31.26,0,0,0,18.09,34.41c-3.11,7.34-3.45,14.76.28,22,3.93,7.64,10.31,11.82,18.85,12.68A33.85,33.85,0,0,0,48,68.58a40.46,40.46,0,0,0,15.18-7.14c4.34-3.19,8.21-6.79,10.7-11.67a16.55,16.55,0,0,0,2-9.31c-.61-6-3.84-10.61-8.1-14.52-3.52-3.22-7.29-6.15-10.93-9.23a9.71,9.71,0,0,0-6.17-2.64C50.37,14.06,47,14.15,45.63,14.35Zm-9-10.83c.15-.09.14-.22,0-.27-.56-.24,1.11.53.55.31a19,19,0,0,0-8.6-1.63A26.11,26.11,0,0,0,12.43,9.59,31.08,31.08,0,0,0,4.68,20.72a38.39,38.39,0,0,0,.37,29.16,41.73,41.73,0,0,0,8.49,13.57,60.69,60.69,0,0,0,4.56,4.37.52.52,0,0,0,0-.49c-1-2.08-2.06-4.16-3.11-6.23a2.12,2.12,0,0,0-.44-.58A31.75,31.75,0,0,1,6.39,47.73,23.66,23.66,0,0,1,5.35,34c1.26-5.42,4.16-10,7.78-14.09A61.74,61.74,0,0,1,34.23,4.62ZM80.45,48.86c0,.16.1.17.16,0s.23-.46.33-.69c.86-2.09,1.73-4.18,2.57-6.28a10.83,10.83,0,0,0,.87-2.53,43.48,43.48,0,0,0-.13-13.23A31.83,31.83,0,0,0,80.5,15.54c-2.76-4.68-7-7.7-11.65-10.18A14,14,0,0,0,59,4.08c-3.26.73-6.47,1.69-9.69,2.55a3.78,3.78,0,0,0-.68.4c.22.18.32.28.44.36,1.91,1.43,3.84,2.83,5.72,4.3a14.29,14.29,0,0,0,4,2.25,23.44,23.44,0,0,1,5.46,2.73,34.13,34.13,0,0,1,9.87,10.7,47.69,47.69,0,0,1,5.79,16.56C80.13,45.56,80.26,47.21,80.45,48.86Zm1.38,5c0-.42-.16-.35-.28-.07-.66,1.72-1.38,3.43-2,5.17-1.27,3.72-2.42,7.47-4.82,10.71A22.57,22.57,0,0,1,56,79.2c-1.51,0-3-.33-4.53-.17A47.11,47.11,0,0,1,28,75.24c-.39-.16-.72-.37-1.14-.55-.25-.11-.42,0-.17.28,1.73,1.35,3.39,2.78,5.2,4a60.89,60.89,0,0,0,10.54,5.63,35.73,35.73,0,0,0,14.44,3A19.9,19.9,0,0,0,71.07,82a28.43,28.43,0,0,0,7.4-13,113.49,113.49,0,0,0,3.19-13.29A18.84,18.84,0,0,0,81.83,53.81Zm-44.46,17a2.53,2.53,0,0,0,.32.27,76.56,76.56,0,0,0,13.42,5.17,11.37,11.37,0,0,0,8.13-.67c.75-.37,1.54-.65,2.29-1A30.41,30.41,0,0,0,73.27,64.4a70.66,70.66,0,0,0,5.91-11.35,3,3,0,0,0,.2-1,35.66,35.66,0,0,0-1.2-11.31,1.91,1.91,0,0,0-.38-.81c-.3-.11-.27.36-.27.51.14,5.68-2.27,10.41-5.73,14.65A46.78,46.78,0,0,1,56.77,67a31.26,31.26,0,0,1-14.51,3.78Zm34-66.19C80.84,10.87,85,20.3,87.14,31c1.42-6.22,1.65-12.35-2.2-17.82C81.65,8.47,76.91,5.82,71.33,4.62ZM46.55,77.9C36.89,73.82,27.28,69.7,18.42,64c1,1.88,2.13,3.7,3.32,5.45a6.57,6.57,0,0,0,1.83,2,45.08,45.08,0,0,0,11.61,5.1A42,42,0,0,0,46.55,77.9ZM25.85,21.15c-.19.22-.07.41.19.21a53,53,0,0,1,11.55-6.64,34.33,34.33,0,0,1,13.11-2.6,39.32,39.32,0,0,0-3.19-2.45c-2.24-1.59-2.26-1.62-4.71-.38a79.69,79.69,0,0,0-15,9.94C27.12,19.81,26.51,20.51,25.85,21.15ZM55.91,2.37A33.47,33.47,0,0,0,43,3.64c1,.58,1.75,1.08,2.55,1.45a2,2,0,0,0,1.35.12c1.68-.54,3.32-1.21,5-1.75C53.24,3,54.58,2.72,55.91,2.37ZM75.53,65.56a32.18,32.18,0,0,1-12.3,10.25C67.28,75.36,73.81,69.93,75.53,65.56Z"/><path class="cls-2" d="M9.85,52.2c-3.16-4.43-3.68-8.09-3.46-12.67a25.67,25.67,0,0,1,6.06-15.25A64.91,64.91,0,0,1,30.31,9.05a79.14,79.14,0,0,1,8.79-4,2,2,0,0,1,1.45.13c.92.43,1.77,1,2.81,1.6-1.32.75-2.5,1.43-3.7,2.1A62.43,62.43,0,0,0,21.84,23.15,39.7,39.7,0,0,0,14,37.48a34.93,34.93,0,0,0-.88,16.25c.12.67.24,1.34.35,2,0,0,0,.14-.05.17C13.16,56,11,53.68,9.85,52.2Z"/><path class="cls-2" d="M14.28,43.35a49.41,49.41,0,0,0,1.58,9.9,31,31,0,0,0,3.86,8.16c-.26-.2-.69-.4-1.18-.79a7.68,7.68,0,0,1-3.16-4.43A46.33,46.33,0,0,1,14.11,44.7,12.45,12.45,0,0,1,14.28,43.35Z"/></g></g></svg>